<svg width="64" height="64" viewBox="0 0 64 64" fill="none" xmlns="http://www.w3.org/2000/svg">
  <path d="M16 24C16 20.6863 18.6863 18 22 18H42C45.3137 18 48 20.6863 48 24V40C48 43.3137 45.3137 46 42 46H22C18.6863 46 16 43.3137 16 40V24Z" stroke="currentColor" stroke-width="2" fill="none"/>
  <path d="M16 28H12C10.8954 28 10 28.8954 10 30V34C10 35.1046 10.8954 36 12 36H16" stroke="currentColor" stroke-width="2" fill="none"/>
  <path d="M48 28H52C53.1046 28 54 28.8954 54 30V34C54 35.1046 53.1046 36 52 36H48" stroke="currentColor" stroke-width="2" fill="none"/>
  <path d="M24 32H40" stroke="currentColor" stroke-width="2" stroke-linecap="round"/>
  <path d="M28 36H36" stroke="currentColor" stroke-width="2" stroke-linecap="round"/>
</svg>
